<svg xmlns="http://www.w3.org/2000/svg" class="logo" version="1.1" x="0" y="0" viewBox="0 0 457.7 440.2" enable-background="new 0 0 457.718 440.164" xml:space="preserve">
  <defs>
    <rect x="-71.1" y="-79.9" width="600" height="600"/>
  </defs>
  <clipPath>
    <use overflow="visible"/>
  </clipPath>
  <g clip-path="url(#SVGID_2_)">
    <defs>
      <rect x="-71.1" y="-79.9" width="600" height="600"/>
    </defs>
    <clipPath>
      <use overflow="visible"/>
    </clipPath>
    <g opacity="0.8" clip-path="url(#SVGID_4_)">
      <defs>
        <rect x="39.1" y="261.1" width="225.3" height="87.1"/>
      </defs>
      <clipPath>
        <use overflow="visible"/>
      </clipPath>
      <rect x="39.1" y="261.1" clip-path="url(#SVGID_6_)" fill="#FFFFFF" width="225.3" height="87.1"/>
    </g>
    <g opacity="0.8" clip-path="url(#SVGID_4_)">
      <defs>
        <rect y="141.8" width="233.5" height="202.9"/>
      </defs>
      <clipPath>
        <use overflow="visible"/>
      </clipPath>
      <rect x="4.1" y="199.7" transform="matrix(0.809 0.5878 -0.5878 0.809 165.2552 -22.1691)" clip-path="url(#SVGID_8_)" fill="#FFFFFF" width="225.3" height="87.1"/>
    </g>
    <g opacity="0.8" clip-path="url(#SVGID_4_)">
      <defs>
        <rect x="48.3" y="52.3" width="152.5" height="241.2"/>
      </defs>
      <clipPath>
        <use overflow="visible"/>
      </clipPath>
      <rect x="11.9" y="129.3" transform="matrix(0.309 0.9511 -0.9511 0.309 250.5018 1.0091)" clip-path="url(#SVGID_10_)" fill="#FFFFFF" width="225.3" height="87.1"/>
    </g>
    <g opacity="0.8" clip-path="url(#SVGID_4_)">
      <defs>
        <rect x="96" width="152.5" height="241.2"/>
      </defs>
      <clipPath>
        <use overflow="visible"/>
      </clipPath>
      <rect x="59.6" y="77" transform="matrix(-0.309 0.9511 -0.9511 -0.309 340.126 -5.9108)" clip-path="url(#SVGID_12_)" fill="#FFFFFF" width="225.3" height="87.1"/>
    </g>
    <g opacity="0.8" clip-path="url(#SVGID_4_)">
      <defs>
        <rect x="124.8" y="4.8" width="233.5" height="202.9"/>
      </defs>
      <clipPath>
        <use overflow="visible"/>
      </clipPath>
      <rect x="128.8" y="62.7" transform="matrix(-0.809 0.5878 -0.5878 -0.809 499.3647 50.3579)" clip-path="url(#SVGID_14_)" fill="#FFFFFF" width="225.3" height="87.1"/>
    </g>
    <g opacity="0.8" clip-path="url(#SVGID_4_)">
      <defs>
        <rect x="193.3" y="91.9" width="225.3" height="87.1"/>
      </defs>
      <clipPath>
        <use overflow="visible"/>
      </clipPath>
      <rect x="193.3" y="91.9" clip-path="url(#SVGID_16_)" fill="#FFFFFF" width="225.3" height="87.1"/>
    </g>
    <g opacity="0.8" clip-path="url(#SVGID_4_)">
      <defs>
        <rect x="224.2" y="95.5" width="233.5" height="202.9"/>
      </defs>
      <clipPath>
        <use overflow="visible"/>
      </clipPath>
      <rect x="228.3" y="153.4" transform="matrix(-0.809 -0.5878 0.5878 -0.809 501.0667 556.7014)" clip-path="url(#SVGID_18_)" fill="#FFFFFF" width="225.3" height="87.1"/>
    </g>
    <g opacity="0.8" clip-path="url(#SVGID_4_)">
      <defs>
        <rect x="256.9" y="146.7" width="152.5" height="241.2"/>
      </defs>
      <clipPath>
        <use overflow="visible"/>
      </clipPath>
      <rect x="220.5" y="223.7" transform="matrix(-0.309 -0.9511 0.9511 -0.309 181.9275 666.7085)" clip-path="url(#SVGID_20_)" fill="#FFFFFF" width="225.3" height="87.1"/>
    </g>
    <g opacity="0.8" clip-path="url(#SVGID_4_)">
      <defs>
        <rect x="209.3" y="199" width="152.5" height="241.2"/>
      </defs>
      <clipPath>
        <use overflow="visible"/>
      </clipPath>
      <rect x="172.9" y="276" transform="matrix(0.309 -0.9511 0.9511 0.309 -106.641 492.3453)" clip-path="url(#SVGID_22_)" fill="#FFFFFF" width="225.3" height="87.1"/>
    </g>
    <g opacity="0.8" clip-path="url(#SVGID_4_)">
      <defs>
        <rect x="99.5" y="232.4" width="233.5" height="202.9"/>
      </defs>
      <clipPath>
        <use overflow="visible"/>
      </clipPath>
      <rect x="103.6" y="290.3" transform="matrix(0.809 -0.5878 0.5878 0.809 -154.9439 190.8481)" clip-path="url(#SVGID_24_)" fill="#FFFFFF" width="225.3" height="87.1"/>
    </g>
  </g>
</svg>
