<?xml version="1.0" encoding="utf-8"?>
<!-- Generator: Adobe Illustrator 18.1.0, SVG Export Plug-In . SVG Version: 6.00 Build 0)  -->
<!DOCTYPE svg PUBLIC "-//W3C//DTD SVG 1.1//EN" "http://www.w3.org/Graphics/SVG/1.1/DTD/svg11.dtd">
<svg version="1.1" id="Layer_1" xmlns="http://www.w3.org/2000/svg" xmlns:xlink="http://www.w3.org/1999/xlink" x="0px" y="0px" width="502.3px" height="147.7px"
	 viewBox="214.3 206.3 502.3 147.7" enable-background="new 214.3 206.3 502.3 147.7" xml:space="preserve">
<g>
	<g>
		<path fill="#B20000" d="M714.6,330.7c0,11.2-9,20.2-20.2,20.2H237.1c-11.2,0-20.2-9-20.2-20.2V229.3c0-11.2,9-20.2,20.2-20.2
			h457.3c11.2,0,20.2,9,20.2,20.2V330.7z"/>
	</g>
	<g>
		<g enable-background="new    ">
			<path fill="#FFFFFF" d="M430.5,273.3c-0.1-1.4-0.4-2.5-0.9-3.4c-0.5-0.9-1.2-1.6-2-2.2c-0.8-0.6-1.7-0.9-2.8-1.2
				c-1-0.2-2-0.3-3-0.3c-0.7,0-1.6,0.1-2.5,0.2c-0.9,0.1-1.8,0.4-2.6,0.9s-1.5,1.1-2,1.9c-0.6,0.8-0.8,1.9-0.8,3.2
				c0,0.7,0.1,1.4,0.4,1.9s0.6,0.9,1,1.3c0.4,0.3,0.8,0.6,1.3,0.8s1,0.4,1.5,0.5l10,2.3c1.1,0.3,2.2,0.6,3.2,1.1s1.8,1.1,2.5,1.9
				c0.7,0.8,1.3,1.7,1.7,2.7c0.4,1,0.6,2.3,0.6,3.7c0,2.1-0.4,3.8-1.3,5.2c-0.9,1.4-2,2.4-3.3,3.2c-1.3,0.8-2.8,1.4-4.4,1.7
				c-1.6,0.3-3.2,0.5-4.7,0.5c-1.6,0-3-0.1-4.2-0.3c-1.2-0.2-2.1-0.5-3-0.8c-0.8-0.3-1.5-0.7-2-1.1c-0.5-0.4-1-0.8-1.4-1.1
				c-1.5-1.4-2.5-2.8-2.9-4.2c-0.4-1.4-0.7-3-0.7-4.7h4.4c0,1.6,0.3,2.9,0.9,3.9c0.6,1,1.3,1.9,2.3,2.5s2,1.1,3.1,1.3
				s2.3,0.4,3.4,0.4c0.8,0,1.8-0.1,2.9-0.2c1.1-0.1,2.1-0.4,3-0.9c0.9-0.4,1.7-1,2.3-1.8c0.6-0.8,1-1.8,1-3c0-0.9-0.1-1.7-0.4-2.3
				c-0.2-0.6-0.7-1.2-1.2-1.6c-0.6-0.5-1.3-0.9-2.3-1.2c-1-0.3-2.2-0.7-3.6-1l-7.2-1.7c-0.6-0.1-1.3-0.3-2.1-0.7
				c-0.8-0.3-1.7-0.8-2.4-1.4c-0.8-0.6-1.5-1.4-2-2.4c-0.6-1-0.9-2.2-0.9-3.8c0-1.4,0.2-2.7,0.7-4s1.2-2.5,2.1-3.5
				c1-1,2.2-1.8,3.8-2.4c1.5-0.6,3.3-0.9,5.5-0.9c3.1,0,5.5,0.4,7.3,1.2c1.8,0.8,3.1,1.8,4.1,2.9c0.9,1.2,1.5,2.4,1.8,3.7
				c0.3,1.3,0.4,2.4,0.5,3.4H430.5z"/>
			<path fill="#FFFFFF" d="M458,298.1v-3.7l-0.1-0.1c-0.9,1.5-2,2.6-3.2,3.4c-1.2,0.8-2.9,1.1-4.9,1.1c-0.9,0-1.9-0.1-2.9-0.4
				c-1-0.2-1.9-0.7-2.7-1.3c-0.8-0.6-1.5-1.4-2-2.4c-0.5-1-0.8-2.3-0.8-3.8v-18.3h4.3v16.9c0,1,0.1,1.9,0.4,2.6
				c0.3,0.7,0.6,1.3,1,1.7s1,0.8,1.6,1c0.6,0.2,1.2,0.3,1.9,0.3c1.4,0,2.5-0.3,3.4-0.8s1.6-1.2,2.1-2s0.9-1.7,1.1-2.7
				c0.2-1,0.3-2,0.3-2.9v-14h4.3v25.5H458z"/>
			<path fill="#FFFFFF" d="M468.2,298.1v-35h4.3v12.7h0.1c0.9-1.4,2-2.4,3.3-3c1.2-0.6,2.6-0.9,4.1-1c1.7,0,3.2,0.3,4.5,1
				c1.3,0.7,2.4,1.6,3.3,2.7c0.9,1.2,1.6,2.5,2.1,4c0.5,1.5,0.7,3.2,0.7,5c0,1.5-0.2,3.1-0.5,4.8c-0.4,1.7-1,3.2-1.8,4.6
				c-0.9,1.4-2,2.6-3.4,3.5s-3.2,1.4-5.4,1.4c-1.1,0-2-0.1-2.8-0.4c-0.8-0.3-1.5-0.6-2-1c-0.6-0.4-1-0.8-1.3-1.3
				c-0.3-0.5-0.6-0.9-0.9-1.2h-0.1v3.2H468.2z M486.1,285.3c0-0.8,0-1.8-0.1-2.9s-0.4-2.2-0.9-3.1c-0.5-1-1.2-1.8-2.1-2.5
				c-0.9-0.7-2.2-1-3.9-1c-1.6,0-2.8,0.4-3.7,1.1c-0.9,0.7-1.6,1.6-2.1,2.8c-0.5,1.1-0.8,2.3-0.9,3.5c-0.1,1.3-0.2,2.4-0.2,3.4
				c0,1.7,0.2,3.1,0.7,4.2c0.5,1.1,1.1,2,1.8,2.6c0.7,0.7,1.5,1.1,2.3,1.4c0.8,0.3,1.6,0.4,2.2,0.4c1.2,0,2.2-0.3,3-0.8
				c0.9-0.5,1.6-1.2,2.1-2.1s1-1.9,1.3-3.1C486,288,486.1,286.7,486.1,285.3z"/>
			<path fill="#FFFFFF" d="M510.1,279.9c0-0.4-0.1-0.8-0.2-1.3s-0.4-1-0.8-1.4c-0.4-0.4-1-0.8-1.8-1.1c-0.8-0.3-1.9-0.4-3.2-0.4
				c-0.3,0-0.8,0-1.3,0.1c-0.6,0.1-1.1,0.2-1.7,0.5c-0.6,0.2-1,0.6-1.4,1.1c-0.4,0.5-0.6,1.1-0.6,1.9c0,0.5,0.1,1,0.3,1.3
				c0.2,0.3,0.4,0.6,0.8,0.9c0.4,0.2,0.8,0.5,1.4,0.7c0.6,0.2,1.3,0.4,2.1,0.6l4.3,1.1c2.7,0.7,4.5,1.5,5.6,2.6
				c1.1,1.1,1.6,2.4,1.6,4.2c0,1.3-0.3,2.5-0.8,3.6c-0.5,1-1.2,1.9-2.1,2.6c-0.9,0.7-2,1.3-3.2,1.7c-1.2,0.4-2.6,0.6-4,0.6
				c-1.7,0-3.1-0.1-4.3-0.4c-1.2-0.3-2.2-0.7-3-1.2c-0.8-0.5-1.4-1.1-1.9-1.7s-0.9-1.3-1.1-1.9c-0.2-0.7-0.4-1.3-0.5-1.9
				c-0.1-0.6-0.1-1.2-0.2-1.7h4.1c0,0.5,0.1,1,0.3,1.7c0.1,0.6,0.4,1.2,0.9,1.7c0.5,0.5,1.1,1,2,1.3c0.9,0.4,2.1,0.5,3.6,0.5
				c0.8,0,1.5-0.1,2.2-0.2c0.7-0.2,1.3-0.4,1.9-0.7c0.5-0.3,1-0.7,1.3-1.2s0.5-1.1,0.5-1.8c0-1-0.4-1.8-1.2-2.2
				c-0.8-0.5-2.1-1-3.9-1.4l-5-1.2c-1.8-0.5-3.2-1.2-4.3-2.1c-1.1-1-1.6-2.3-1.6-4.1c0-1.4,0.3-2.6,0.8-3.6s1.3-1.9,2.1-2.5
				c0.9-0.7,1.9-1.2,3.1-1.5c1.2-0.3,2.4-0.5,3.6-0.5c2.3,0,4.1,0.4,5.4,1.1c1.3,0.7,2.3,1.5,2.9,2.5c0.6,0.9,1.1,1.8,1.2,2.7
				c0.2,0.9,0.2,1.5,0.2,1.8H510.1z"/>
			<path fill="#FFFFFF" d="M535.9,281.2c-0.3-1.7-0.9-3.1-1.9-4c-1-1-2.4-1.4-4.2-1.4c-1.3,0-2.4,0.3-3.3,0.9
				c-0.9,0.6-1.6,1.3-2.2,2.2c-0.6,0.9-0.9,2-1.2,3.1c-0.2,1.1-0.3,2.3-0.3,3.4c0,1.1,0.1,2.2,0.3,3.4s0.5,2.2,1,3.2
				s1.2,1.7,2.1,2.3c0.9,0.6,2.1,0.9,3.6,0.9c1.5,0,2.8-0.5,3.9-1.6s1.9-2.5,2.2-4.5h4.1c-0.1,1-0.3,2.1-0.8,3.2
				c-0.4,1.1-1,2.2-1.8,3.2c-0.8,1-1.8,1.8-3.1,2.4c-1.3,0.6-2.9,1-4.7,1c-1.8,0-3.4-0.3-4.8-1c-1.4-0.6-2.6-1.5-3.6-2.7
				c-1-1.1-1.7-2.5-2.2-4c-0.5-1.6-0.8-3.3-0.8-5.1c0-2,0.2-3.8,0.7-5.6c0.5-1.7,1.2-3.2,2.2-4.5c1-1.3,2.3-2.3,3.8-3
				c1.5-0.7,3.4-1.1,5.5-1.1c1.7,0,3.1,0.3,4.2,0.8s2.1,1.3,2.9,2.2c0.8,0.9,1.3,1.9,1.7,3c0.4,1.1,0.6,2.2,0.7,3.3H535.9z"/>
			<path fill="#FFFFFF" d="M549.2,298.1h-4.3v-25.5h4v4.2h0.1c0.8-1.5,1.8-2.7,3-3.6c1.2-0.9,2.5-1.4,4.2-1.4c0.3,0,0.5,0,0.6,0
				c0.2,0,0.3,0.1,0.5,0.1v4.4h-1.6c-1,0-1.9,0.2-2.7,0.5c-0.8,0.4-1.5,0.9-2,1.5s-1,1.4-1.3,2.2c-0.3,0.8-0.5,1.7-0.5,2.6V298.1z"
				/>
			<path fill="#FFFFFF" d="M561.4,268v-4.9h4.3v4.9H561.4z M565.7,298.1h-4.3v-25.5h4.3V298.1z"/>
			<path fill="#FFFFFF" d="M571.8,298.1v-35h4.3v12.7h0.1c0.9-1.4,2-2.4,3.3-3c1.2-0.6,2.6-0.9,4.1-1c1.7,0,3.2,0.3,4.5,1
				c1.3,0.7,2.4,1.6,3.3,2.7c0.9,1.2,1.6,2.5,2.1,4c0.5,1.5,0.7,3.2,0.7,5c0,1.5-0.2,3.1-0.5,4.8c-0.4,1.7-1,3.2-1.8,4.6
				c-0.9,1.4-2,2.6-3.4,3.5s-3.2,1.4-5.4,1.4c-1.1,0-2-0.1-2.8-0.4c-0.8-0.3-1.5-0.6-2-1c-0.6-0.4-1-0.8-1.3-1.3
				c-0.3-0.5-0.6-0.9-0.9-1.2h-0.1v3.2H571.8z M589.7,285.3c0-0.8,0-1.8-0.1-2.9s-0.4-2.2-0.9-3.1c-0.5-1-1.2-1.8-2.1-2.5
				c-0.9-0.7-2.2-1-3.9-1c-1.6,0-2.8,0.4-3.7,1.1c-0.9,0.7-1.6,1.6-2.1,2.8c-0.5,1.1-0.8,2.3-0.9,3.5c-0.1,1.3-0.2,2.4-0.2,3.4
				c0,1.7,0.2,3.1,0.7,4.2c0.5,1.1,1.1,2,1.8,2.6c0.7,0.7,1.5,1.1,2.3,1.4c0.8,0.3,1.6,0.4,2.2,0.4c1.2,0,2.2-0.3,3-0.8
				c0.9-0.5,1.6-1.2,2.1-2.1s1-1.9,1.3-3.1C589.6,288,589.7,286.7,589.7,285.3z"/>
			<path fill="#FFFFFF" d="M620.9,290.1c0,0.3-0.1,0.7-0.3,1.3c-0.2,0.6-0.4,1.2-0.8,1.9c-0.4,0.7-0.8,1.3-1.4,2
				c-0.6,0.7-1.2,1.3-2,1.8c-0.3,0.2-0.6,0.4-1,0.6c-0.4,0.2-0.8,0.4-1.4,0.6s-1.2,0.3-1.9,0.4c-0.7,0.1-1.6,0.2-2.6,0.2
				c-1.8,0-3.4-0.3-4.8-1c-1.4-0.6-2.6-1.5-3.6-2.7c-1-1.1-1.7-2.5-2.2-4c-0.5-1.6-0.8-3.3-0.8-5.1c0-2,0.2-3.8,0.7-5.6
				c0.5-1.7,1.2-3.2,2.2-4.5c1-1.3,2.3-2.3,3.8-3c1.5-0.7,3.4-1.1,5.5-1.1c1.9,0,3.5,0.3,4.8,1c1.4,0.7,2.5,1.7,3.4,3
				c0.9,1.3,1.6,2.9,2,4.7c0.5,1.8,0.7,3.9,0.7,6.1h-18.6c0,2.7,0.6,4.7,1.9,6.2c1.2,1.5,3.1,2.2,5.6,2.2c1,0,1.9-0.2,2.7-0.5
				c0.8-0.3,1.5-0.8,2-1.3c0.6-0.5,1-1.1,1.3-1.6c0.3-0.6,0.5-1.1,0.5-1.6H620.9z M616.8,283.3c-0.1-1-0.2-1.9-0.5-2.9
				c-0.3-0.9-0.7-1.7-1.2-2.4c-0.6-0.7-1.3-1.3-2.1-1.7c-0.9-0.4-2-0.6-3.3-0.6c-1,0-1.9,0.2-2.8,0.6c-0.9,0.4-1.6,1-2.2,1.7
				c-0.6,0.7-1.1,1.5-1.5,2.4c-0.4,0.9-0.6,1.9-0.6,2.9H616.8z"/>
		</g>
		<g>
			<path id="The_Sharpness_1_" opacity="0.12" enable-background="new    " d="M313.8,267.4l20.4,13.6l2.8-1.5L313.8,267.4z"/>
			<g id="Lozenge_2_">
				<g>
					<path fill="#FFFFFF" d="M365,263.2c0,0-0.9-5.9-3.4-8.6c-3.2-3.4-6.9-3.4-8.6-3.7c-12.1-0.9-30.1-0.9-30.1-0.9l0,0
						c0,0-18.2,0-30.1,0.9c-1.6,0.1-5.3,0.1-8.6,3.7c-2.7,2.7-3.4,8.6-3.4,8.6s-0.9,6.9-0.9,13.9v6.5c0,6.9,0.9,13.9,0.9,13.9
						s0.9,5.9,3.4,8.6c3.2,3.4,7.5,3.4,9.5,3.7c6.9,0.6,29.2,0.9,29.2,0.9s18.2,0,30.1-0.9c1.6-0.1,5.3-0.1,8.6-3.7
						c2.7-2.7,3.4-8.6,3.4-8.6s0.9-6.9,0.9-13.9V277C365.9,270.1,365,263.2,365,263.2z M313.8,291.7v-24.2l23.3,12.1L313.8,291.7z"
						/>
				</g>
			</g>
		</g>
	</g>
</g>
</svg>
